<?xml version="1.0" encoding="UTF-8" standalone="no"?>
<!DOCTYPE svg PUBLIC "-//W3C//DTD SVG 1.1//EN"
"http://www.w3.org/Graphics/SVG/1.1/DTD/svg11.dtd">
<svg xmlns="http://www.w3.org/2000/svg"
xmlns:xlink="http://www.w3.org/1999/xlink" xml:space="preserve"
width="712pt" height="268pt"
viewBox="0 0 712 268">
<g font-family="sans-serif" font-weight="bold">
<g transform="translate(0,0.08316) scale(0.49954) translate(440.5935,200.4001)" stroke="#7b7569" fill="none">
<path d="M984.7217,335.762 L-440.5935,335.762 -440.5935,-200.4001 984.7217,-200.4001 z" fill="#7b7569"/>
</g><g transform="translate(0,0.08316) scale(0.49954) translate(440.5935,200.4001)" stroke="#d9d4ad" fill="none">
<path d="M-405.5935,-165.4001 L-405.5935,300.762 949.7217,300.762 949.7217,-165.4001 z" fill="#d9d4ad"/>
</g><g transform="translate(0,0.08316) scale(0.49954) translate(440.5935,200.4001)" stroke="#7b7569" stroke-width="1.80166" fill="none">
<path d="M-325.5869,146.7215 L-405.5945,146.7215 -405.5945,134.7195 -325.5869,134.7195 z M80.4873,146.7215 L-270.9757,146.7215 -270.9757,134.7195 80.4873,134.7195 z M244.7585,146.7215 L135.0985,146.7215 135.0985,134.7195 244.7585,134.7195 z M631.0518,146.7215 L299.3697,146.7215 299.3697,134.7195 631.0518,134.7195 z M819.6584,146.7215 L685.663,146.7215 685.663,134.7195 819.6584,134.7195 z M949.7227,146.7215 L874.2696,146.7215 874.2696,134.7195 949.7227,134.7195 z" fill="#7b7569"/>

<path d="M-176.879,30.481 L-188.881,30.481 -188.881,-165.4011 -176.879,-165.4011 z" fill="#7b7569"/>

<path d="M-80.7897,24.481 L-92.7917,24.481 -92.7917,-165.4011 -80.7897,-165.4011 z" fill="#7b7569"/>

<path d="M-61.4195,-19.9975 L-111.6137,-19.9975 -111.6137,-31.9995 -61.4195,-31.9995 z" fill="#7b7569"/>

<path d="M7.3494,28.108 L-4.6526,28.108 -4.6526,-167.7742 7.3494,-167.7742 z" fill="#7b7569"/>

<path d="M110.6177,28.108 L98.6157,28.108 98.6157,-167.7742 110.6177,-167.7742 z" fill="#7b7569"/>

<path d="M-324.4737,36.481 L-405.5945,36.481 -405.5945,24.479 -324.4737,24.479 z M-116.4437,36.481 L-269.8625,36.481 -269.8625,24.479 -116.4437,24.479 z M24.4921,36.481 L-61.8325,36.481 -61.8325,24.479 24.4921,24.479 z M136.4228,36.481 L79.1033,36.481 79.1033,24.479 136.4228,24.479 z M305.7088,36.481 L191.034,36.481 191.034,24.479 305.7088,24.479 z" fill="#7b7569"/>

<path d="M305.7088,36.481 L293.7068,36.481 293.7068,-165.4011 305.7088,-165.4011 z" fill="#7b7569"/>

<path d="M166.2349,-67.9156 L108.6059,-67.9156 108.6059,-79.9176 166.2349,-79.9176 z" fill="#7b7569"/>

<path d="M232.9933,-51.1557 L220.9913,-51.1557 220.9913,-165.4011 232.9933,-165.4011 z" fill="#7b7569"/>

<path d="M232.9933,-39.1557 L204.1233,-39.1557 204.1233,-51.1577 232.9933,-51.1577 z" fill="#7b7569"/>

<path d="M216.1253,24.481 L204.1233,24.481 204.1233,-39.1577 216.1253,-39.1577 z" fill="#7b7569"/>

<path d="M293.9533,-39.1557 L232.9913,-39.1557 232.9913,-51.1577 293.9533,-51.1577 z" fill="#7b7569"/>

<path d="M444.3601,37.4446 L399.273,37.4446 399.273,25.4426 444.3601,25.4426 z M631.7948,37.4446 L498.9712,37.4446 498.9712,25.4426 631.7948,25.4426 z M759.2645,37.4446 L686.406,37.4446 686.406,25.4426 759.2645,25.4426 z M868.2457,37.4446 L813.8757,37.4446 813.8757,25.4426 868.2457,25.4426 z M949.7227,37.4446 L922.8569,37.4446 922.8569,25.4426 949.7227,25.4426 z" fill="#7b7569"/>

<path d="M402.241,37.0021 L390.239,37.0021 390.239,-182.881 402.241,-182.881 z" fill="#7b7569"/>

<path d="M524.161,30.481 L512.159,30.481 512.159,-165.4011 524.161,-165.4011 z" fill="#7b7569"/>

<path d="M420.6285,-70.017 L396.239,-70.017 396.239,-82.0191 420.6285,-82.0191 z" fill="#7b7569"/>

<path d="M512.161,-70.017 L468.0786,-70.017 468.0786,-82.0191 512.161,-82.0191 z" fill="#7b7569"/>

<path d="M742.1052,25.4446 L730.1032,25.4446 730.1032,-187.9174 742.1052,-187.9174 z" fill="#7b7569"/>

<path d="M843.6228,25.4446 L831.6208,25.4446 831.6208,-165.4011 843.6228,-165.4011 z" fill="#7b7569"/>

<path d="M-85.439,304.801 L-97.441,304.801 -97.441,146.7195 -85.439,146.7195 z" fill="#7b7569"/>

<path d="M219.361,304.801 L207.359,304.801 207.359,146.7195 219.361,146.7195 z" fill="#7b7569"/>

<path d="M583.0826,301.5994 L571.0806,301.5994 571.0806,134.7195 583.0826,134.7195 z" fill="#7b7569"/>

<path d="M749.7192,304.801 L737.7172,304.801 737.7172,146.7195 749.7192,146.7195 z" fill="#7b7569"/>
</g><g transform="translate(0,0.08316) scale(0.49954) translate(440.5935,200.4001)" stroke="#111111" stroke-width="1.80166" fill="none">
<path d="M984.7217,335.762 L-440.5935,335.762 -440.5935,-200.4001 984.7217,-200.4001 z M191.034,24.479 L204.1233,24.479 204.1233,-51.1577 220.9913,-51.1577 220.9913,-165.4001 110.6177,-165.4001 110.6177,-79.9176 166.2349,-79.9176 166.2349,-67.9156 110.6177,-67.9156 110.6177,24.479 136.4228,24.479 136.4228,36.481 79.1033,36.481 79.1033,24.479 98.6157,24.479 98.6157,-165.4001 7.3494,-165.4001 7.3494,24.479 24.4921,24.479 24.4921,36.481 -61.8325,36.481 -61.8325,24.479 -4.6526,24.479 -4.6526,-165.4001 -80.7897,-165.4001 -80.7897,-31.9995 -61.4195,-31.9995 -61.4195,-19.9975 -80.7897,-19.9975 -80.7897,24.481 -92.7917,24.481 -92.7917,-19.9975 -111.6137,-19.9975 -111.6137,-31.9995 -92.7917,-31.9995 -92.7917,-165.4001 -176.879,-165.4001 -176.879,24.479 -116.4437,24.479 -116.4437,36.481 -269.8625,36.481 -269.8625,24.479 -188.881,24.479 -188.881,-165.4001 -405.5935,-165.4001 -405.5935,24.479 -324.4737,24.479 -324.4737,36.481 -405.5935,36.481 -405.5935,134.7195 -325.5869,134.7195 -325.5869,146.7215 -405.5935,146.7215 -405.5935,300.762 -97.441,300.762 -97.441,146.7215 -270.9757,146.7215 -270.9757,134.7195 80.4873,134.7195 80.4873,146.7215 -85.439,146.7215 -85.439,300.762 207.359,300.762 207.359,146.7215 135.0985,146.7215 135.0985,134.7195 244.7585,134.7195 244.7585,146.7215 219.361,146.7215 219.361,300.762 571.0806,300.762 571.0806,146.7215 299.3697,146.7215 299.3697,134.7195 631.0518,134.7195 631.0518,146.7215 583.0826,146.7215 583.0826,300.762 737.7172,300.762 737.7172,146.7215 685.663,146.7215 685.663,134.7195 819.6584,134.7195 819.6584,146.7215 749.7192,146.7215 749.7192,300.762 949.7217,300.762 949.7217,146.7215 874.2696,146.7215 874.2696,134.7195 949.7217,134.7195 949.7217,37.4446 922.8569,37.4446 922.8569,25.4426 949.7217,25.4426 949.7217,-165.4001 843.6228,-165.4001 843.6228,25.4426 868.2457,25.4426 868.2457,37.4446 813.8757,37.4446 813.8757,25.4426 831.6208,25.4426 831.6208,-165.4001 742.1052,-165.4001 742.1052,25.4426 759.2645,25.4426 759.2645,37.4446 686.406,37.4446 686.406,25.4426 730.1032,25.4426 730.1032,-165.4001 524.161,-165.4001 524.161,25.4426 631.7948,25.4426 631.7948,37.4446 498.9712,37.4446 498.9712,25.4426 512.159,25.4426 512.159,-70.017 468.0786,-70.017 468.0786,-82.0191 512.159,-82.0191 512.159,-165.4001 402.241,-165.4001 402.241,-82.0191 420.6285,-82.0191 420.6285,-70.017 402.241,-70.017 402.241,25.4426 444.3601,25.4426 444.3601,37.4446 399.273,37.4446 399.273,37.0021 390.239,37.0021 390.239,-165.4001 305.7088,-165.4001 305.7088,36.481 191.034,36.481 z M216.1253,24.479 L293.7068,24.479 293.7068,-39.1557 216.1253,-39.1557 z M232.9933,-165.4001 L232.9933,-51.1577 293.7068,-51.1577 293.7068,-165.4001 z"/>
</g><g transform="translate(0,0.08316) scale(0.49954) translate(440.5935,200.4001)" stroke="#ffffff" stroke-width="0.60055" opacity="1" fill="none">
<path id="709" d="M843.6218,25.44359 L949.72168,25.44359 949.72168,-165.40013 843.6218,-165.40013 z" fill="#ffffff"/>
</g><g transform="translate(0,0.08316) scale(0.49954) translate(440.5935,200.4001)" stroke="#000000" stroke-width="0.60055" opacity="1" fill="none">
<path d="M843.6218,25.44359 L949.72168,25.44359 949.72168,-165.40013 843.6218,-165.40013 z"/>
</g><g transform="translate(0,0.08316) scale(0.49954) translate(440.5935,200.4001)" stroke="#ffffff" stroke-width="0.60055" opacity="1" fill="none">
<path id="707" d="M524.16,25.44359 L730.10423,25.44359 730.10423,-165.40014 524.16,-165.40014 z" fill="#ffffff"/>
</g><g transform="translate(0,0.08316) scale(0.49954) translate(440.5935,200.4001)" stroke="#000000" stroke-width="0.60055" opacity="1" fill="none">
<path d="M524.16,25.44359 L730.10423,25.44359 730.10423,-165.40014 524.16,-165.40014 z"/>
</g><g transform="translate(0,0.08316) scale(0.49954) translate(440.5935,200.4001)" stroke="#ffffff" stroke-width="0.60055" opacity="1" fill="none">
<path id="wc_m" d="M402.24,25.44359 L512.16,25.44359 512.16,-165.40014 402.24,-165.40014 z" fill="#ffffff"/>
</g><g transform="translate(0,0.08316) scale(0.49954) translate(440.5935,200.4001)" stroke="#000000" stroke-width="0.60055" opacity="1" fill="none">
<path d="M402.24,25.44359 L512.16,25.44359 512.16,-165.40014 402.24,-165.40014 z"/>
</g><g transform="translate(0,0.08316) scale(0.49954) translate(440.5935,200.4001)" stroke="#ffffff" stroke-width="0.60055" opacity="1" fill="none">
<path id="703" d="M-176.88,24.48 L-92.79066,24.48 -92.79066,-165.40013 -176.88,-165.40013 z" fill="#ffffff"/>
</g><g transform="translate(0,0.08316) scale(0.49954) translate(440.5935,200.4001)" stroke="#000000" stroke-width="0.60055" opacity="1" fill="none">
<path d="M-176.88,24.48 L-92.79066,24.48 -92.79066,-165.40013 -176.88,-165.40013 z"/>
</g><g transform="translate(0,0.08316) scale(0.49954) translate(440.5935,200.4001)" stroke="#ffffff" stroke-width="0.60055" opacity="1" fill="none">
<path id="705" d="M-80.79066,24.48 L-4.65158,24.48 -4.65158,-165.40013 -80.79066,-165.40013 z" fill="#ffffff"/>
</g><g transform="translate(0,0.08316) scale(0.49954) translate(440.5935,200.4001)" stroke="#000000" stroke-width="0.60055" opacity="1" fill="none">
<path d="M-80.79066,24.48 L-4.65158,24.48 -4.65158,-165.40013 -80.79066,-165.40013 z"/>
</g><g transform="translate(0,0.08316) scale(0.49954) translate(440.5935,200.4001)" stroke="#ffffff" stroke-width="0.60055" opacity="1" fill="none">
<path id="701" d="M-405.5935,24.48 L-188.88,24.48 -188.88,-165.40014 -405.5935,-165.40014 z" fill="#ffffff"/>
</g><g transform="translate(0,0.08316) scale(0.49954) translate(440.5935,200.4001)" stroke="#000000" stroke-width="0.60055" opacity="1" fill="none">
<path d="M-405.5935,24.48 L-188.88,24.48 -188.88,-165.40014 -405.5935,-165.40014 z"/>
</g><g transform="translate(0,0.08316) scale(0.49954) translate(440.5935,200.4001)" stroke="#ffffff" stroke-width="0.60055" opacity="1" fill="none">
<path id="702" d="M-405.59349,300.76199 L-97.44,300.76199 -97.44,146.7205 -405.59349,146.7205 z" fill="#ffffff"/>
</g><g transform="translate(0,0.08316) scale(0.49954) translate(440.5935,200.4001)" stroke="#000000" stroke-width="0.60055" opacity="1" fill="none">
<path d="M-405.59349,300.76199 L-97.44,300.76199 -97.44,146.7205 -405.59349,146.7205 z"/>
</g><g transform="translate(0,0.08316) scale(0.49954) translate(440.5935,200.4001)" stroke="#ffffff" stroke-width="0.60055" opacity="1" fill="none">
<path id="704" d="M-85.44,300.76199 L207.36,300.76199 207.36,146.7205 -85.44,146.7205 z" fill="#ffffff"/>
</g><g transform="translate(0,0.08316) scale(0.49954) translate(440.5935,200.4001)" stroke="#000000" stroke-width="0.60055" opacity="1" fill="none">
<path d="M-85.44,300.76199 L207.36,300.76199 207.36,146.7205 -85.44,146.7205 z"/>
</g><g transform="translate(0,0.08316) scale(0.49954) translate(440.5935,200.4001)" stroke="#ffffff" stroke-width="0.60055" opacity="1" fill="none">
<path id="wc_w" d="M110.61669,24.48 L110.61669,-165.40014 220.99231,-165.40014 220.99231,-51.94064 208.08639,-51.94064 208.08639,24.48 z" fill="#ffffff"/>
</g><g transform="translate(0,0.08316) scale(0.49954) translate(440.5935,200.4001)" stroke="#000000" stroke-width="0.60055" opacity="1" fill="none">
<path d="M110.61669,24.48 L110.61669,-165.40014 220.99231,-165.40014 220.99231,-51.94064 208.08639,-51.94064 208.08639,24.48 z"/>
</g><g transform="translate(0,0.08316) scale(0.49954) translate(440.5935,200.4001)" stroke="#ffffff" stroke-width="0.60055" opacity="1" fill="none">
<path id="706" d="M219.36,300.76199 L571.08163,300.76199 571.08163,146.7205 219.36,146.7205 z" fill="#ffffff"/>
</g><g transform="translate(0,0.08316) scale(0.49954) translate(440.5935,200.4001)" stroke="#000000" stroke-width="0.60055" opacity="1" fill="none">
<path d="M219.36,300.76199 L571.08163,300.76199 571.08163,146.7205 219.36,146.7205 z"/>
</g><g transform="translate(0,0.08316) scale(0.49954) translate(440.5935,200.4001)" stroke="#ffffff" stroke-width="0.60055" opacity="1" fill="none">
<path id="708" d="M583.08163,300.76199 L737.71815,300.76199 737.71815,146.7205 583.08163,146.7205 z" fill="#ffffff"/>
</g><g transform="translate(0,0.08316) scale(0.49954) translate(440.5935,200.4001)" stroke="#000000" stroke-width="0.60055" opacity="1" fill="none">
<path d="M583.08163,300.76199 L737.71815,300.76199 737.71815,146.7205 583.08163,146.7205 z"/>
</g><g transform="translate(0,0.08316) scale(0.49954) translate(440.5935,200.4001)" stroke="#ffffff" stroke-width="0.60055" opacity="1" fill="none">
<path id="710" d="M749.71815,300.76199 L949.72168,300.76199 949.72168,146.7205 749.71815,146.7205 z" fill="#ffffff"/>
</g><g transform="translate(0,0.08316) scale(0.49954) translate(440.5935,200.4001)" stroke="#000000" stroke-width="0.60055" opacity="1" fill="none">
<path d="M749.71815,300.76199 L949.72168,300.76199 949.72168,146.7205 749.71815,146.7205 z"/>

<path d="M-325.58688,135.7205 L-270.97569,135.7205"/>

<path d="M-270.97569,145.7205 L-275.97569,145.7205 -275.97569,135.7205"/>

<path d="M-325.58688,145.7205 L-320.58688,145.7205 -320.58688,135.7205 -320.58688,91.10931 C-295.9488,91.10931 -275.97569,111.08242 -275.97569,135.7205"/>

<line x1="-315.58688" y1="135.7205" x2="-315.58688" y2="91.39039"/>

<path d="M80.48727,135.7205 L135.09846,135.7205"/>

<path d="M135.09846,145.7205 L130.09846,145.7205 130.09846,135.7205"/>

<path d="M80.48727,145.7205 L85.48727,145.7205 85.48727,135.7205 85.48727,91.10931 C110.12535,91.10931 130.09846,111.08242 130.09846,135.7205"/>

<line x1="90.48727" y1="135.7205" x2="90.48727" y2="91.39039"/>

<path d="M244.7585,135.7205 L299.36969,135.7205"/>

<path d="M299.36969,145.7205 L294.36969,145.7205 294.36969,135.7205"/>

<path d="M244.7585,145.7205 L249.7585,145.7205 249.7585,135.7205 249.7585,91.10931 C274.39658,91.10931 294.36969,111.08242 294.36969,135.7205"/>

<line x1="254.7585" y1="135.7205" x2="254.7585" y2="91.39039"/>

<path d="M631.05184,135.7205 L685.66303,135.7205"/>

<path d="M685.66303,145.7205 L680.66303,145.7205 680.66303,135.7205"/>

<path d="M631.05184,145.7205 L636.05184,145.7205 636.05184,135.7205 636.05184,91.10931 C660.68992,91.10931 680.66303,111.08242 680.66303,135.7205"/>

<line x1="641.05184" y1="135.7205" x2="641.05184" y2="91.39039"/>

<path d="M819.65839,135.7205 L874.26958,135.7205"/>

<path d="M874.26958,145.7205 L869.26958,145.7205 869.26958,135.7205"/>

<path d="M819.65839,145.7205 L824.65839,145.7205 824.65839,135.7205 824.65839,91.10931 C849.29647,91.10931 869.26958,111.08242 869.26958,135.7205"/>

<line x1="829.65839" y1="135.7205" x2="829.65839" y2="91.39039"/>

<path d="M-324.47372,35.48 L-269.86253,35.48"/>

<path d="M-269.86253,25.48 L-274.86253,25.48 -274.86253,35.48"/>

<path d="M-324.47372,25.48 L-319.47372,25.48 -319.47372,35.48 -319.47372,80.09119 C-294.83564,80.09119 -274.86253,60.11808 -274.86253,35.48"/>

<line x1="-314.47372" y1="35.48" x2="-314.47372" y2="79.81011"/>

<path d="M-116.44373,35.48 L-61.83254,35.48"/>

<path d="M-61.83254,25.48 L-66.83254,25.48 -66.83254,35.48"/>

<path d="M-116.44373,25.48 L-111.44373,25.48 -111.44373,35.48 -111.44373,80.09119 C-86.80565,80.09119 -66.83254,60.11808 -66.83254,35.48"/>

<line x1="-106.44373" y1="35.48" x2="-106.44373" y2="79.81011"/>

<path d="M24.49207,35.48 L79.10326,35.48"/>

<path d="M79.10326,25.48 L74.10326,25.48 74.10326,35.48"/>

<path d="M24.49207,25.48 L29.49207,25.48 29.49207,35.48 29.49207,80.09119 C54.13015,80.09119 74.10326,60.11808 74.10326,35.48"/>

<line x1="34.49207" y1="35.48" x2="34.49207" y2="79.81011"/>

<path d="M136.42277,35.48 L191.03396,35.48"/>

<path d="M191.03396,25.48 L186.03396,25.48 186.03396,35.48"/>

<path d="M136.42277,25.48 L141.42277,25.48 141.42277,35.48 141.42277,80.09119 C166.06085,80.09119 186.03396,60.11808 186.03396,35.48"/>

<line x1="146.42277" y1="35.48" x2="146.42277" y2="79.81011"/>

<path d="M444.36005,36.44359 L498.97124,36.44359"/>

<path d="M498.97124,26.44359 L493.97124,26.44359 493.97124,36.44359"/>

<path d="M444.36005,26.44359 L449.36005,26.44359 449.36005,36.44359 449.36005,81.05478 C473.99813,81.05478 493.97124,61.08167 493.97124,36.44359"/>

<line x1="454.36005" y1="36.44359" x2="454.36005" y2="80.7737"/>

<path d="M631.79477,36.44359 L686.40596,36.44359"/>

<path d="M686.40596,26.44359 L681.40596,26.44359 681.40596,36.44359"/>

<path d="M631.79477,26.44359 L636.79477,26.44359 636.79477,36.44359 636.79477,81.05478 C661.43285,81.05478 681.40596,61.08167 681.40596,36.44359"/>

<line x1="641.79477" y1="36.44359" x2="641.79477" y2="80.7737"/>

<path d="M759.26451,36.44359 L813.8757,36.44359"/>

<path d="M813.8757,26.44359 L808.8757,26.44359 808.8757,36.44359"/>

<path d="M759.26451,26.44359 L764.26451,26.44359 764.26451,36.44359 764.26451,81.05478 C788.90259,81.05478 808.8757,61.08167 808.8757,36.44359"/>

<line x1="769.26451" y1="36.44359" x2="769.26451" y2="80.7737"/>

<path d="M868.2457,36.44359 L922.85689,36.44359"/>

<path d="M922.85689,26.44359 L917.85689,26.44359 917.85689,36.44359"/>

<path d="M868.2457,26.44359 L873.2457,26.44359 873.2457,36.44359 873.2457,81.05478 C897.88378,81.05478 917.85689,61.08167 917.85689,36.44359"/>

<line x1="878.2457" y1="36.44359" x2="878.2457" y2="80.7737"/>
</g><g transform="translate(0,0.08316) scale(0.49954) translate(440.5935,200.4001)" stroke="#ffffff" stroke-width="0.60055" opacity="1" fill="none">
<path d="M10.51071,-7.05691 L96.58498,-7.05691 96.58498,-140.78591 10.51071,-140.78591 z" fill="#ffffff"/>
</g><g transform="translate(0,0.08316) scale(0.49954) translate(440.5935,200.4001)" stroke="#000000" stroke-width="0.60055" opacity="1" fill="none">
<path d="M10.51071,-7.05691 L96.58498,-7.05691 96.58498,-140.78591 10.51071,-140.78591 z"/>

<path d="M14.51071,-7.05691 L14.51071,-140.78591"/>

<path d="M92.58498,-7.05691 L92.58498,-140.78591"/>

<line x1="10.51071" y1="-114.04011" x2="96.58498" y2="-114.04011"/>

<line x1="10.51071" y1="-87.29431" x2="96.58498" y2="-87.29431"/>

<line x1="10.51071" y1="-60.54851" x2="96.58498" y2="-60.54851"/>

<line x1="10.51071" y1="-33.80271" x2="96.58498" y2="-33.80271"/>

<line x1="53.54785" y1="-7.05691" x2="53.54785" y2="-140.78591"/>

<line x1="43.54785" y1="-125.78591" x2="53.54785" y2="-140.78591"/>

<line x1="63.54785" y1="-125.78591" x2="53.54785" y2="-140.78591"/>
</g><g transform="translate(0,0.08316) scale(0.49954) translate(440.5935,200.4001)" stroke="#ffffff" stroke-width="0.60055" opacity="1" fill="none">
<path d="M742.10424,-8.45668 L828.17851,-8.45668 828.17851,-142.18568 742.10424,-142.18568 z" fill="#ffffff"/>
</g><g transform="translate(0,0.08316) scale(0.49954) translate(440.5935,200.4001)" stroke="#000000" stroke-width="0.60055" opacity="1" fill="none">
<path d="M742.10424,-8.45668 L828.17851,-8.45668 828.17851,-142.18568 742.10424,-142.18568 z"/>

<path d="M746.10424,-8.45668 L746.10424,-142.18568"/>

<path d="M824.17851,-8.45668 L824.17851,-142.18568"/>

<line x1="742.10424" y1="-115.43988" x2="828.17851" y2="-115.43988"/>

<line x1="742.10424" y1="-88.69408" x2="828.17851" y2="-88.69408"/>

<line x1="742.10424" y1="-61.94828" x2="828.17851" y2="-61.94828"/>

<line x1="742.10424" y1="-35.20248" x2="828.17851" y2="-35.20248"/>

<line x1="785.14137" y1="-8.45668" x2="785.14137" y2="-142.18568"/>

<line x1="775.14137" y1="-127.18568" x2="785.14137" y2="-142.18568"/>

<line x1="795.14137" y1="-127.18568" x2="785.14137" y2="-142.18568"/></g></g>
</svg>